# Blender 5.1.0
# www.blender.org
o Stairs
v -2.500000 0.004801 8.381688
v -2.500000 0.339259 8.381688
v 2.500000 0.004801 8.381688
v 2.500000 0.339259 8.381688
v -2.500000 0.339259 7.331663
v 2.500000 1.008175 7.331663
v -2.500000 0.673717 6.982149
v 2.500000 0.673717 6.982149
v -2.500000 1.008175 7.331663
v 2.500000 0.004801 6.982149
v -2.500000 0.004801 6.982149
v 2.500000 0.339259 7.331663
v 2.500000 1.008175 6.280267
v -2.500000 0.673717 5.930753
v 2.500000 0.673717 5.930753
v -2.500000 1.008175 6.280267
v 2.500000 1.656545 6.280267
v -2.500000 1.322087 5.930753
v 2.500000 1.322087 5.930753
v -2.500000 1.656545 6.280267
v 2.500000 1.656545 5.231471
v -2.500000 1.322087 4.881958
v 2.500000 1.322087 4.881958
v -2.500000 1.656545 5.231471
v 2.500000 2.320517 5.231471
v -2.500000 1.986059 4.881958
v 2.500000 1.986059 4.881958
v -2.500000 2.320517 5.231471
v 2.500000 2.320517 4.189429
v -2.500000 1.986059 3.839915
v 2.500000 1.986059 3.839915
v -2.500000 2.320517 4.189429
v 2.500000 2.997300 4.189429
v -2.500000 2.662843 3.839915
v 2.500000 2.662843 3.839915
v -2.500000 2.997300 4.189429
v 2.500000 2.997300 3.118203
v -2.500000 2.662843 2.768689
v 2.500000 2.662843 2.768689
v -2.500000 2.997300 3.118203
v 2.500000 3.688868 3.118203
v -2.500000 3.354410 2.768689
v 2.500000 3.354410 2.768689
v -2.500000 3.688868 3.118203
v 2.500000 3.688868 2.093933
v -2.500000 3.354410 1.744419
v 2.500000 3.354410 1.744419
v -2.500000 3.688868 2.093933
v 2.500000 4.341935 2.093933
v -2.500000 4.007477 1.744419
v 2.500000 4.007477 1.744419
v -2.500000 4.341935 2.093933
v 2.500000 4.341935 1.015862
v -2.500000 4.007477 0.666348
v 2.500000 4.007477 0.666348
v -2.500000 4.341935 1.015862
v 2.500000 5.004807 1.015862
v -2.500000 4.670349 0.666348
v 2.500000 4.670349 0.666348
v -2.500000 5.004807 1.015862
v 2.500000 5.004807 -0.019829
v -2.500000 4.670349 -0.018365
v 2.500000 4.670349 -0.018365
v -2.500000 5.004807 -0.019829
vn -0.0000 -0.0000 1.0000
vn -0.0000 1.0000 -0.0000
vn 1.0000 -0.0000 -0.0000
vn -0.0000 -1.0000 -0.0000
vn -0.0000 -0.0000 -1.0000
vn -1.0000 -0.0000 -0.0000
vn -0.0000 -0.0044 -1.0000
vt 0.914978 1.000000
vt 0.894978 1.000000
vt 0.894978 0.500000
vt 0.914978 0.500000
vt 0.529272 0.000000
vt 0.529272 0.500000
vt 0.466482 0.500000
vt 0.466482 0.000000
vt 0.934978 0.000000
vt 0.914978 0.000000
vt 0.914978 0.083690
vt 0.934978 0.062790
vt 0.000000 0.000000
vt 0.083690 0.000000
vt 0.083690 0.500000
vt 0.000000 0.500000
vt 0.340739 0.500000
vt 0.340739 -0.000000
vt 0.403610 -0.000000
vt 0.403610 0.500000
vt 0.610216 0.500000
vt 0.610216 1.000000
vt 0.570216 1.000000
vt 0.570216 0.500000
vt 0.954978 0.083690
vt 0.974978 0.062790
vt 0.650687 0.000000
vt 0.650687 0.500000
vt 0.610687 0.500000
vt 0.610687 -0.000000
vt 0.914978 0.167380
vt 0.934978 0.167380
vt 0.934978 0.104590
vt 0.974978 0.104590
vt 0.807854 -0.000000
vt 0.807854 0.500000
vt 0.769082 0.500000
vt 0.769082 -0.000000
vt 0.403610 0.500000
vt 0.403610 -0.000000
vt 0.466482 -0.000000
vt 0.466482 0.500000
vt 0.860067 0.499466
vt 0.832030 0.506592
vt 0.865347 0.453274
vt 0.893384 0.446148
vt 0.893738 0.714652
vt 0.865702 0.707526
vt 0.832385 0.654208
vt 0.860421 0.661334
vt 0.893301 0.640788
vt 0.865265 0.633662
vt 0.832030 0.580476
vt 0.860067 0.587602
vt 0.832467 0.432728
vt 0.860504 0.425602
vt 0.768801 0.500000
vt 0.768801 1.000000
vt 0.730030 1.000000
vt 0.730030 0.500000
vt 0.865702 0.559436
vt 0.893738 0.566562
vt 0.062716 1.000000
vt 0.062716 0.500000
vt 0.125432 0.500000
vt 0.125432 1.000000
vt 0.000000 1.000000
vt 0.000000 0.500000
vt 0.062716 0.500000
vt 0.062716 1.000000
vt 0.865702 0.379542
vt 0.893738 0.372416
vt 0.125432 1.000000
vt 0.125432 0.500000
vt 0.187745 0.500000
vt 0.187745 1.000000
vt 0.650391 0.500000
vt 0.650391 1.000000
vt 0.610687 1.000000
vt 0.610687 0.500000
vt 0.690391 0.000000
vt 0.690391 0.500000
vt 0.650687 0.500000
vt 0.650687 0.000000
vt 0.832030 0.358502
vt 0.860067 0.351376
vt 0.797613 0.798532
vt 0.769503 0.791701
vt 0.803597 0.769895
vt 0.831707 0.776726
vt 0.865051 0.305658
vt 0.893087 0.298532
vt 0.832681 0.506592
vt 0.860718 0.513718
vt 0.187745 1.000000
vt 0.187745 0.500000
vt 0.250057 0.500000
vt 0.250057 1.000000
vt 0.212624 0.500000
vt 0.212624 -0.000000
vt 0.276681 -0.000000
vt 0.276681 0.500000
vt 0.610687 -0.000000
vt 0.570216 0.500000
vt 0.570216 -0.000000
vt 0.569742 0.500000
vt 0.569742 1.000000
vt 0.529272 1.000000
vt 0.529272 0.500000
vt 0.894557 0.291701
vt 0.866447 0.298532
vt 0.832354 0.276726
vt 0.860464 0.269895
vt 0.517198 0.500000
vt 0.517198 1.000000
vt 0.475843 1.000000
vt 0.475843 0.500000
vt 0.276681 -0.000000
vt 0.340739 0.000000
vt 0.340739 0.500000
vt 0.866868 0.222762
vt 0.894978 0.215931
vt 0.769082 0.715931
vt 0.797192 0.722762
vt 0.832030 0.700480
vt 0.803921 0.693649
vt 0.770919 0.642051
vt 0.799029 0.648881
vt 0.832030 0.200480
vt 0.860140 0.193649
vt 0.475843 0.500000
vt 0.475843 1.000000
vt 0.434489 1.000000
vt 0.434489 0.500000
vt 0.769082 0.000000
vt 0.769082 0.500000
vt 0.730030 0.500000
vt 0.730030 0.000000
vt 0.311990 1.000000
vt 0.311990 0.500000
vt 0.373239 0.500000
vt 0.373239 1.000000
vt 0.373239 1.000000
vt 0.373239 0.500000
vt 0.434489 0.500000
vt 0.865032 0.148882
vt 0.893142 0.142051
vt 0.860243 0.121009
vt 0.832133 0.127840
vt 0.866868 0.073531
vt 0.894978 0.066700
vt 0.803817 0.621009
vt 0.831927 0.627840
vt 0.729444 0.500000
vt 0.729444 1.000000
vt 0.690391 1.000000
vt 0.690391 0.500000
vt 0.797192 0.573531
vt 0.769082 0.566700
vt 0.802475 0.545343
vt 0.830585 0.552174
vt 0.148157 0.500000
vt 0.148157 0.000000
vt 0.212624 0.000000
vt 0.212624 0.500000
vt 0.083690 0.500000
vt 0.083690 0.000000
vt 0.148157 0.000000
vt 0.148157 0.500000
vt 0.529272 -0.000000
vt 0.570216 -0.000000
vt 0.690326 0.500000
vt 0.690326 1.000000
vt 0.650687 1.000000
vt 0.650687 0.500000
vt 0.730030 0.000000
vt 0.730030 0.500000
vt 0.690391 0.500000
vt 0.690391 0.000000
vt 0.833476 0.052174
vt 0.861586 0.045343
vt 0.894978 0.500000
vt 0.894978 -0.000000
vt 0.914978 -0.000000
vt 0.866846 0.000000
vt 0.883647 0.010850
vt 0.780414 0.510850
vt 0.797215 0.500000
vt 0.250057 1.000000
vt 0.250057 0.500000
vt 0.311990 0.500000
vt 0.311989 1.000000
s 0
f 3/1/1 4/2/1 2/3/1 1/4/1
f 12/5/2 5/6/2 2/7/2 4/8/2
f 4/9/3 3/10/3 10/11/3 12/12/3
f 1/13/4 11/14/4 10/15/4 3/16/4
f 9/17/2 6/18/2 13/19/2 16/20/2
f 5/21/1 12/22/1 6/23/1 9/24/1
f 12/12/3 10/11/3 8/25/3 6/26/3
f 10/27/5 11/28/5 7/29/5 8/30/5
f 1/31/6 2/32/6 5/33/6 11/11/6
f 7/25/6 11/11/6 5/33/6 9/34/6
f 15/35/5 14/36/5 18/37/5 19/38/5
f 8/39/4 7/40/4 14/41/4 15/42/4
f 7/43/6 9/44/6 16/45/6 14/46/6
f 6/47/3 8/48/3 15/49/3 13/50/3
f 17/51/3 19/52/3 23/53/3 21/54/3
f 14/46/6 16/45/6 20/55/6 18/56/6
f 13/50/3 15/49/3 19/52/3 17/51/3
f 16/57/1 13/58/1 17/59/1 20/60/1
f 21/54/3 23/53/3 27/61/3 25/62/3
f 20/63/2 17/64/2 21/65/2 24/66/2
f 19/67/4 18/68/4 22/69/4 23/70/4
f 18/56/6 20/55/6 24/71/6 22/72/6
f 27/73/4 26/74/4 30/75/4 31/76/4
f 24/77/1 21/78/1 25/79/1 28/80/1
f 23/81/5 22/82/5 26/83/5 27/84/5
f 22/72/6 24/71/6 28/85/6 26/86/6
f 29/87/3 31/88/3 35/89/3 33/90/3
f 26/86/6 28/85/6 32/91/6 30/92/6
f 25/62/3 27/61/3 31/93/3 29/94/3
f 28/95/2 25/96/2 29/97/2 32/98/2
f 36/99/2 33/100/2 37/101/2 40/102/2
f 32/103/1 29/29/1 33/104/1 36/105/1
f 31/106/5 30/107/5 34/108/5 35/109/5
f 30/110/6 32/111/6 36/112/6 34/113/6
f 39/114/5 38/115/5 42/116/5 43/117/5
f 35/102/4 34/118/4 38/119/4 39/120/4
f 34/113/6 36/112/6 40/121/6 38/122/6
f 33/90/3 35/89/3 39/123/3 37/124/3
f 41/125/3 43/126/3 47/127/3 45/128/3
f 38/122/6 40/121/6 44/129/6 42/130/6
f 37/124/3 39/123/3 43/126/3 41/125/3
f 40/131/1 37/132/1 41/133/1 44/134/1
f 47/135/5 46/136/5 50/137/5 51/138/5
f 44/139/2 41/140/2 45/141/2 48/142/2
f 43/143/4 42/144/4 46/145/4 47/133/4
f 42/130/6 44/129/6 48/146/6 46/147/6
f 50/148/6 52/149/6 56/150/6 54/151/6
f 46/147/6 48/146/6 52/149/6 50/148/6
f 45/128/3 47/127/3 51/152/3 49/153/3
f 48/154/1 45/155/1 49/156/1 52/157/1
f 53/158/3 55/159/3 59/160/3 57/161/3
f 49/153/3 51/152/3 55/159/3 53/158/3
f 52/162/2 49/163/2 53/164/2 56/165/2
f 51/166/4 50/167/4 54/168/4 55/169/4
f 59/109/4 58/170/4 62/171/4 63/104/4
f 56/172/1 53/173/1 57/174/1 60/175/1
f 55/176/5 54/177/5 58/178/5 59/179/5
f 54/151/6 56/150/6 60/180/6 58/181/6
f 64/182/7 61/183/7 63/184/7 62/4/7
f 58/181/6 60/180/6 64/185/6 62/186/6
f 57/161/3 59/160/3 63/187/3 61/188/3
f 60/189/2 57/190/2 61/191/2 64/192/2
