# Blender 5.1.0
# www.blender.org
mtllib Base_Big_Square.mtl
o Sockel_Square
v 4.950000 0.000000 -4.950000
v 4.950000 0.000000 4.950000
v -4.950000 0.000000 -4.950000
v -4.950000 0.000000 4.950000
v 4.950000 4.950000 -4.950000
v 4.950000 4.950000 4.950000
v -4.950000 4.950000 -4.950000
v -4.950000 4.950000 4.950000
vn -0.0000 -1.0000 -0.0000
vn -0.0000 1.0000 -0.0000
vn -0.0000 -0.0000 1.0000
vn -1.0000 -0.0000 -0.0000
vn 1.0000 -0.0000 -0.0000
vn -0.0000 -0.0000 -1.0000
vt 0.125000 0.500000
vt 0.375000 0.500000
vt 0.375000 0.750000
vt 0.125000 0.750000
s 0
usemtl Material
f 3/1/1 1/2/1 2/3/1 4/4/1
f 7/1/2 8/4/2 6/3/2 5/2/2
f 2/3/3 6/3/3 8/4/3 4/4/3
f 4/4/4 8/4/4 7/1/4 3/1/4
f 1/2/5 5/2/5 6/3/5 2/3/5
f 3/1/6 7/1/6 5/2/6 1/2/6
