# Blender 5.1.0
# www.blender.org
mtllib Base_Big_Round.mtl
o Sockel_Rund
v 3.417057 0.000000 -3.417057
v 3.417057 0.000000 3.417057
v -3.417057 0.000000 -3.417057
v -3.417057 0.000000 3.417057
v 0.000000 0.000000 -4.950000
v 0.000000 0.000000 4.950000
v -4.950000 0.000000 0.000000
v 4.950000 0.000000 0.000000
v 0.000000 0.000000 0.000000
v 3.417057 4.950000 -3.417057
v 3.417057 4.950000 3.417057
v -3.417057 4.950000 -3.417057
v -3.417057 4.950000 3.417057
v 0.000000 4.950000 -4.950000
v 0.000000 4.950000 4.950000
v -4.950000 4.950000 0.000000
v 4.950000 4.950000 0.000000
v 0.000000 4.950000 0.000000
vn -0.0000 -1.0000 -0.0000
vn -0.0000 1.0000 -0.0000
vn 0.4093 -0.0000 -0.9124
vn 0.4093 -0.0000 0.9124
vn -0.9124 -0.0000 0.4093
vn -0.9124 -0.0000 -0.4093
vn -0.4093 -0.0000 0.9124
vn 0.9124 -0.0000 -0.4093
vn -0.4093 -0.0000 -0.9124
vn 0.9124 -0.0000 0.4093
vt 0.250000 0.625000
vt 0.375000 0.625000
vt 0.375000 0.750000
vt 0.250000 0.750000
vt 0.125000 0.625000
vt 0.125000 0.750000
vt 0.125000 0.500000
vt 0.250000 0.500000
vt 0.375000 0.500000
s 0
usemtl Material
f 9/1/1 8/2/1 2/3/1 6/4/1
f 7/5/1 9/1/1 6/4/1 4/6/1
f 3/7/1 5/8/1 9/1/1 7/5/1
f 5/8/1 1/9/1 8/2/1 9/1/1
f 18/1/2 15/4/2 11/3/2 17/2/2
f 16/5/2 13/6/2 15/4/2 18/1/2
f 12/7/2 16/5/2 18/1/2 14/8/2
f 14/8/2 18/1/2 17/2/2 10/9/2
f 5/8/3 14/8/3 10/9/3 1/9/3
f 2/3/4 11/3/4 15/4/4 6/4/4
f 4/6/5 13/6/5 16/5/5 7/5/5
f 7/5/6 16/5/6 12/7/6 3/7/6
f 6/4/7 15/4/7 13/6/7 4/6/7
f 1/9/8 10/9/8 17/2/8 8/2/8
f 3/7/9 12/7/9 14/8/9 5/8/9
f 8/2/10 17/2/10 11/3/10 2/3/10
