# Blender 5.1.0
# www.blender.org
o destroyed_whall
v 0.001063 -0.003649 -0.533277
v 0.001063 -0.003649 -0.001115
v 0.893713 2.027851 -0.001115
v 0.001063 2.000778 -0.533277
v 5.001062 -0.003649 -0.533277
v 5.001062 -0.003649 -0.001115
v 5.001062 4.996351 -0.533276
v 5.001062 4.996351 -0.001115
v 0.893713 2.463714 -0.001115
v 0.893713 2.443948 -0.533277
v 0.893713 -0.003649 -0.533277
v 0.893713 -0.003649 -0.001115
v 5.001062 4.016076 -0.001115
v 1.577017 -0.003649 -0.533277
v 5.001062 4.016076 -0.533276
v 1.577017 -0.003649 -0.001115
v 2.851510 4.996351 -0.001115
v 2.851510 -0.003649 -0.533277
v 2.851510 4.996351 -0.533276
v 2.851510 -0.003649 -0.001115
v 3.969217 4.996351 -0.001115
v 3.969217 -0.003649 -0.533277
v 3.969217 4.996351 -0.533276
v 3.969217 -0.003649 -0.001115
v 0.001063 3.364038 -0.533276
v 0.001063 3.382722 -0.001115
v 0.893713 3.409523 -0.001115
v 0.893713 3.384518 -0.533276
v 0.893713 2.012968 -0.533277
v 0.001063 2.011899 -0.001115
v 1.577017 2.043227 -0.001115
v 1.577017 2.007674 -0.533277
v 0.893713 2.985585 -0.001115
v 0.893713 2.975305 -0.533277
v 0.738943 2.467130 -0.001114
v 0.727825 2.961147 -0.001116
v 0.754797 2.437601 -0.533277
v 0.742451 2.986230 -0.533276
v 5.001062 1.024324 -0.533277
v 5.001062 1.024324 -0.001115
v 2.851510 1.024324 -0.001115
v 2.851510 1.024324 -0.533277
v 3.969217 1.024324 -0.001115
v 3.969217 1.024324 -0.533277
v 0.001063 0.998565 -0.533277
v 0.001063 1.004125 -0.001115
v 0.893713 1.012101 -0.001115
v 0.893713 1.004659 -0.533277
v 1.577017 1.019789 -0.001115
v 1.577017 1.002013 -0.533277
v 2.851510 4.016076 -0.001115
v 2.851510 4.016076 -0.533276
v 3.969217 4.016076 -0.001115
v 3.969217 4.016076 -0.533276
v 5.001062 1.569368 -0.533277
v 5.001062 1.569367 -0.001115
v 2.851510 1.569367 -0.001115
v 2.851510 1.569367 -0.533277
v 3.969217 1.569367 -0.001115
v 3.969217 1.569367 -0.533277
vn -1.0000 -0.0000 -0.0000
vn -0.0000 1.0000 -0.0000
vn 1.0000 -0.0000 -0.0000
vn -0.0000 -1.0000 -0.0000
vn -0.0000 -0.0000 -1.0000
vn -0.0000 -0.0000 1.0000
vn -0.0074 0.9989 -0.0473
vn -0.0105 0.9998 -0.0167
vn -0.0100 0.9989 -0.0464
vn -0.0265 0.9988 -0.0410
vn 0.9993 0.0225 0.0285
vn 0.0426 -0.9990 -0.0133
vt 0.663210 0.621822
vt 0.709768 0.629377
vt 0.685600 0.750590
vt 0.640030 0.739104
vt 0.809856 0.592897
vt 0.762530 0.592906
vt 0.762562 0.501135
vt 0.809875 0.501161
vt 0.049145 0.407966
vt 0.089589 0.433011
vt 0.039700 0.503456
vt -0.000000 0.479863
vt 0.653875 0.370285
vt 0.701065 0.365316
vt 0.709480 0.444681
vt 0.662153 0.448779
vt 0.173151 0.475137
vt 0.098111 0.423764
vt 0.034518 0.479027
vt 0.100034 0.536177
vt 0.667658 0.535941
vt 0.715209 0.536096
vt 0.301391 1.000000
vt 0.234506 0.976113
vt 0.257539 0.876219
vt 0.317742 0.839111
vt 0.330148 0.902481
vt 0.317303 0.909966
vt 0.304435 0.956755
vt 0.316622 0.966905
vt 0.647462 0.309417
vt 0.694760 0.305337
vt 0.242786 0.984123
vt 0.312097 0.999106
vt 0.323463 0.966199
vt 0.310526 0.960663
vt 0.318581 0.907285
vt 0.330054 0.901623
vt 0.313762 0.842988
vt 0.252881 0.881258
vt 0.640030 0.194647
vt 0.687523 0.193817
vt 0.081283 0.109251
vt 0.125958 0.107472
vt 0.144256 0.192383
vt 0.096405 0.187938
vt 0.760775 0.265136
vt 0.769455 0.303211
vt 0.723369 0.313127
vt 0.715209 0.276053
vt 0.716810 0.062319
vt 0.715209 0.001258
vt 0.762388 0.000000
vt 0.764287 0.060433
vt 0.169991 0.476183
vt 0.244411 0.558663
vt 0.168386 0.605252
vt 0.112375 0.543691
vt 0.644337 0.092105
vt 0.691221 0.097267
vt 0.716661 0.265136
vt 0.715209 0.151912
vt 0.762550 0.151197
vt 0.763938 0.264635
vt 0.659939 0.000000
vt 0.706042 0.008273
vt 0.234901 0.567990
vt 0.154976 0.597580
vt 0.809875 0.692288
vt 0.762557 0.692293
vt 0.772153 0.315966
vt 0.726298 0.325911
vt 0.727029 0.416217
vt 0.774785 0.421285
vt 0.761421 0.501135
vt 0.715209 0.493203
vt 0.241687 0.771111
vt 0.196825 0.838495
vt 0.119285 0.812207
vt 0.152965 0.744605
vt 0.193141 0.839839
vt 0.241353 0.774402
vt 0.159191 0.741075
vt 0.118619 0.804794
vt 0.269493 0.709043
vt 0.173512 0.699138
vt 0.272489 0.716596
vt 0.178798 0.694141
vt 0.731555 0.381314
vt 0.778023 0.382011
vt 0.778346 0.367145
vt 0.730563 0.367585
vt 0.272231 0.533042
vt 0.207537 0.430322
vt 0.113744 0.396458
vt 0.197768 0.432313
vt 0.277084 0.518791
vt 0.124753 0.395667
vt 0.074350 0.369304
vt 0.349298 0.787406
vt 0.351047 0.782784
vt 0.209690 0.104198
vt 0.125021 0.118750
vt 0.143494 0.195646
vt 0.239857 0.189749
vt 0.196166 0.106911
vt 0.247861 0.035344
vt 0.304985 0.086577
vt 0.251671 0.183424
vt 0.294213 0.061956
vt 0.332954 0.142018
vt 0.298661 0.004028
vt 0.344357 -0.000000
vt 0.351047 0.091494
vt 0.067559 0.387584
vt 0.762530 0.501135
vt 0.762530 0.718701
vt 0.715209 0.718701
vt 0.715209 0.501135
vt 0.811491 0.000000
vt 0.812532 0.099784
vt 0.765076 0.099628
vt 0.764287 0.000636
vt 0.811415 0.148619
vt 0.764287 0.147717
vt 0.303104 0.193175
s 0
f 4/1/1 30/2/1 26/3/1 25/4/1
f 23/5/2 21/6/2 8/7/2 7/8/2
f 39/9/3 40/10/3 6/11/3 5/12/3
f 11/13/4 12/14/4 2/15/4 1/16/4
f 44/17/5 39/18/5 5/19/5 22/20/5
f 45/21/1 46/22/1 30/2/1 4/1/1
f 27/23/6 26/24/6 30/25/6 3/26/6 9/27/6 35/28/6 36/29/6 33/30/6
f 14/31/4 16/32/4 12/14/4 11/13/4
f 25/33/5 28/34/5 34/35/5 38/36/5 37/37/5 10/38/5 29/39/5 4/40/5
f 18/41/4 20/42/4 16/32/4 14/31/4
f 7/43/3 8/44/3 13/45/3 15/46/3
f 29/47/3 10/48/3 9/49/3 3/50/3
f 32/51/7 29/52/7 3/53/7 31/54/7
f 43/55/6 41/56/6 20/57/6 24/58/6
f 22/59/4 24/60/4 20/42/4 18/41/4
f 42/61/8 50/62/8 49/63/8 41/64/8
f 32/51/3 31/54/3 49/63/3 50/62/3
f 5/65/4 6/66/4 24/60/4 22/59/4
f 40/10/6 43/55/6 24/58/6 6/11/6
f 42/67/5 44/17/5 22/20/5 18/68/5
f 19/69/2 17/70/2 21/6/2 23/5/2
f 10/48/9 37/71/9 35/72/9 9/49/9
f 27/73/10 28/74/10 25/75/10 26/76/10
f 47/77/6 46/78/6 2/79/6 12/80/6
f 45/81/5 48/82/5 11/83/5 1/84/5
f 49/85/6 47/77/6 12/80/6 16/86/6
f 48/82/5 50/87/5 14/88/5 11/83/5
f 33/89/3 34/90/3 28/74/3 27/73/3
f 37/71/11 38/91/11 36/92/11 35/72/11
f 38/91/12 34/90/12 33/89/12 36/92/12
f 58/93/5 60/94/5 44/17/5 42/67/5
f 56/95/6 59/96/6 43/55/6 40/10/6
f 59/96/6 57/97/6 41/56/6 43/55/6
f 60/94/5 55/98/5 39/18/5 44/17/5
f 55/99/3 56/95/3 40/10/3 39/9/3
f 29/39/5 32/100/5 50/87/5 48/82/5
f 31/101/6 3/26/6 47/77/6 49/85/6
f 4/40/5 29/39/5 48/82/5 45/81/5
f 3/26/6 30/25/6 46/78/6 47/77/6
f 1/16/1 2/15/1 46/22/1 45/21/1
f 23/102/5 7/103/5 15/104/5 54/105/5
f 41/56/6 49/85/6 16/86/6 20/57/6
f 50/87/5 42/67/5 18/68/5 14/88/5
f 21/106/6 17/107/6 51/108/6 53/109/6
f 8/44/6 21/106/6 53/109/6 13/45/6
f 19/110/5 23/102/5 54/105/5 52/111/5
f 51/108/1 17/112/1 19/113/1 52/114/1
f 15/46/3 13/45/3 56/95/3 55/115/3
f 54/105/5 15/104/5 55/98/5 60/94/5
f 54/116/1 60/117/1 59/118/1 53/119/1
f 13/45/6 53/109/6 59/96/6 56/95/6
f 60/120/2 58/121/2 57/122/2 59/123/2
f 42/124/1 41/125/1 57/122/1 58/121/1
f 51/108/4 52/114/4 54/126/4 53/109/4
