# Blender 5.1.0
# www.blender.org
o archbow
v 0.000182 5.000000 -5.000000
v 0.000182 -0.000000 -5.000000
v 0.000182 5.000000 -2.500000
v 0.000182 3.460121 -2.500000
v 0.000182 2.404618 -3.952153
v 0.000182 1.932583 -4.026882
v 0.000182 -0.000000 -4.026882
v 0.000182 3.385358 -2.971861
v 0.000182 2.830447 -3.735282
v 0.000182 3.168387 -3.397496
v 0.000182 1.932583 -5.000000
v 0.000182 3.114151 -5.000000
v 0.000182 4.122487 -5.000000
v 0.000182 5.000000 -3.569978
v 0.000182 5.000000 0.000000
v 0.000182 -0.000000 0.000000
v 0.000182 2.404618 -1.047847
v 0.000182 1.932583 -0.973118
v 0.000182 -0.000000 -0.973118
v 0.000182 3.385358 -2.028139
v 0.000182 2.830447 -1.264718
v 0.000182 3.168387 -1.602504
v 0.000182 1.932583 0.000000
v 0.000182 3.114151 0.000000
v 0.000182 4.122487 0.000000
v 0.000182 5.000000 -1.430022
v -0.531981 5.000000 -3.569978
v -0.531981 5.000000 -2.500000
v -0.531981 1.932583 -5.000000
v -0.531981 -0.000000 -5.000000
v -0.531981 3.460121 -2.500000
v -0.531981 -0.000000 -4.026882
v -0.531981 1.932583 -4.026882
v -0.531981 2.404618 -3.952153
v -0.531981 2.830447 -3.735282
v -0.531981 3.168387 -3.397496
v -0.531981 3.385358 -2.971861
v -0.531981 3.114151 -5.000000
v -0.531981 4.122487 -5.000000
v -0.531981 5.000000 -5.000000
v -0.531981 5.000000 -1.430022
v -0.531981 1.932583 0.000000
v -0.531981 -0.000000 0.000000
v -0.531981 -0.000000 -0.973118
v -0.531981 1.932583 -0.973118
v -0.531981 2.404618 -1.047847
v -0.531981 2.830447 -1.264718
v -0.531981 3.168387 -1.602504
v -0.531981 3.385358 -2.028139
v -0.531981 3.114151 0.000000
v -0.531981 4.122487 0.000000
v -0.531981 5.000000 0.000000
vn 1.0000 -0.0000 -0.0000
vn -1.0000 -0.0000 -0.0000
vn -0.0000 -1.0000 -0.0000
vn -0.0000 -0.0000 -1.0000
vn -0.0000 -0.7069 0.7073
vn -0.0000 1.0000 -0.0000
vn -0.0000 -0.0000 1.0000
vn -0.0000 -0.8909 0.4542
vn -0.0000 -0.1564 -0.9877
vn -0.0000 -0.9877 0.1565
vn -0.0000 -0.4538 -0.8911
vn -0.0000 -0.7069 -0.7073
vn -0.0000 -0.8909 -0.4542
vn -0.0000 -0.9877 -0.1565
vn -0.0000 -0.1564 0.9877
vn -0.0000 -0.4538 0.8911
vt 0.337327 0.170143
vt 0.439963 0.170142
vt 0.444946 0.201592
vt 0.337328 0.241460
vt 0.541778 0.271910
vt 0.670588 0.271908
vt 0.670589 0.336769
vt 0.541779 0.336770
vt 0.510316 0.266930
vt 0.463025 0.336772
vt 0.481933 0.252475
vt 0.395817 0.336773
vt 0.459408 0.229961
vt 0.337329 0.336773
vt 0.337325 0.098827
vt 0.444945 0.138691
vt 0.541775 0.068370
vt 0.541774 0.003510
vt 0.670585 0.003508
vt 0.670585 0.068368
vt 0.510313 0.073352
vt 0.463020 0.003511
vt 0.481930 0.087807
vt 0.395812 0.003512
vt 0.459406 0.110321
vt 0.337324 0.003513
vt 0.340041 0.169183
vt 0.340040 0.097867
vt 0.447660 0.137731
vt 0.442677 0.169182
vt 0.544489 0.067411
vt 0.544488 0.002550
vt 0.673299 0.002548
vt 0.673300 0.067409
vt 0.513027 0.072392
vt 0.465734 0.002551
vt 0.484645 0.086847
vt 0.398527 0.002552
vt 0.462121 0.109362
vt 0.340039 0.002553
vt 0.447661 0.200632
vt 0.340042 0.240500
vt 0.544492 0.270950
vt 0.673303 0.270949
vt 0.673304 0.335809
vt 0.544493 0.335811
vt 0.513030 0.265970
vt 0.465739 0.335812
vt 0.484647 0.251516
vt 0.398531 0.335813
vt 0.462123 0.229002
vt 0.340043 0.335814
vt 0.521026 0.388913
vt 0.521026 0.453773
vt 0.485556 0.453773
vt 0.485556 0.388913
vt 0.331466 0.644190
vt 0.331468 0.699121
vt 0.011828 0.699121
vt 0.011826 0.644191
vt 0.324925 0.345885
vt 0.324925 0.398010
vt 0.023297 0.398010
vt 0.023297 0.345885
vt 0.324925 0.762876
vt 0.324926 0.973705
vt 0.023297 0.973705
vt 0.023297 0.762876
vt 0.331463 0.487696
vt 0.331465 0.554674
vt 0.011824 0.554675
vt 0.011823 0.487696
vt 0.331457 0.213151
vt 0.331459 0.276271
vt 0.011818 0.276271
vt 0.011816 0.213152
vt 0.324925 0.450128
vt 0.023297 0.450128
vt 0.324925 0.710740
vt 0.023297 0.710740
vt 0.331471 0.836204
vt 0.331474 0.957180
vt 0.011834 0.957180
vt 0.011831 0.836205
vt 0.324925 0.502246
vt 0.023297 0.502246
vt 0.324925 0.658608
vt 0.023297 0.658608
vt 0.331459 0.331201
vt 0.011819 0.331202
vt 0.331470 0.762241
vt 0.011829 0.762241
vt 0.324925 0.606483
vt 0.023297 0.606483
vt 0.468119 0.379553
vt 0.468119 0.444414
vt 0.432650 0.444414
vt 0.432650 0.379553
vt 0.324925 0.554364
vt 0.023297 0.554364
vt 0.324925 0.030787
vt 0.324925 0.241616
vt 0.023297 0.241616
vt 0.023297 0.030787
vt 0.331462 0.420717
vt 0.011821 0.420718
vt 0.324925 0.293752
vt 0.023297 0.293752
vt 0.331453 0.018212
vt 0.331455 0.139188
vt 0.011814 0.139188
vt 0.011812 0.018212
s 0
f 3/1/1 4/2/1 8/3/1 14/4/1
f 6/5/1 7/6/1 2/7/1 11/8/1
f 5/9/1 6/5/1 11/8/1 12/10/1
f 9/11/1 5/9/1 12/10/1 13/12/1
f 10/13/1 9/11/1 13/12/1 1/14/1
f 8/3/1 10/13/1 1/14/1 14/4/1
f 3/1/1 26/15/1 20/16/1 4/2/1
f 18/17/1 23/18/1 16/19/1 19/20/1
f 17/21/1 24/22/1 23/18/1 18/17/1
f 21/23/1 25/24/1 24/22/1 17/21/1
f 22/25/1 15/26/1 25/24/1 21/23/1
f 20/16/1 26/15/1 15/26/1 22/25/1
f 28/27/2 27/28/2 37/29/2 31/30/2
f 33/31/2 29/32/2 30/33/2 32/34/2
f 34/35/2 38/36/2 29/32/2 33/31/2
f 35/37/2 39/38/2 38/36/2 34/35/2
f 36/39/2 40/40/2 39/38/2 35/37/2
f 37/29/2 27/28/2 40/40/2 36/39/2
f 28/27/2 31/30/2 49/41/2 41/42/2
f 45/43/2 44/44/2 43/45/2 42/46/2
f 46/47/2 45/43/2 42/46/2 50/48/2
f 47/49/2 46/47/2 50/48/2 51/50/2
f 48/51/2 47/49/2 51/50/2 52/52/2
f 49/41/2 48/51/2 52/52/2 41/42/2
f 19/53/3 16/54/3 43/55/3 44/56/3
f 1/57/4 13/58/4 39/59/4 40/60/4
f 9/61/5 10/62/5 36/63/5 35/64/5
f 18/65/4 19/66/4 44/67/4 45/68/4
f 3/69/6 14/70/6 27/71/6 28/72/6
f 24/73/7 25/74/7 51/75/7 50/76/7
f 10/62/8 8/77/8 37/78/8 36/63/8
f 17/79/9 18/65/9 45/68/9 46/80/9
f 11/81/4 2/82/4 30/83/4 29/84/4
f 8/77/10 4/85/10 31/86/10 37/78/10
f 21/87/11 17/79/11 46/80/11 47/88/11
f 14/70/6 1/57/6 40/60/6 27/71/6
f 25/74/7 15/89/7 52/90/7 51/75/7
f 12/91/4 11/81/4 29/84/4 38/92/4
f 22/93/12 21/87/12 47/88/12 48/94/12
f 2/95/3 7/96/3 32/97/3 30/98/3
f 20/99/13 22/93/13 48/94/13 49/100/13
f 7/101/7 6/102/7 33/103/7 32/104/7
f 26/105/6 3/69/6 28/72/6 41/106/6
f 13/58/4 12/91/4 38/92/4 39/59/4
f 4/85/14 20/99/14 49/100/14 31/86/14
f 6/102/15 5/107/15 34/108/15 33/103/15
f 16/109/7 23/110/7 42/111/7 43/112/7
f 15/89/6 26/105/6 41/106/6 52/90/6
f 23/110/7 24/73/7 50/76/7 42/111/7
f 5/107/16 9/61/16 35/64/16 34/108/16
