# Blender 5.1.0
# www.blender.org
mtllib Pollard_Coll.mtl
o Pollard_Coll
v -0.386717 -0.219796 0.386717
v -0.386717 1.670228 0.386717
v -0.386717 -0.219796 -0.386717
v -0.386717 1.670228 -0.386717
v 0.386717 -0.219796 0.386717
v 0.386717 1.670228 0.386717
v 0.386717 -0.219796 -0.386717
v 0.386717 1.670228 -0.386717
v -0.107362 -0.894129 -0.107362
v -0.107362 -0.894129 0.107362
v 0.107362 -0.894129 -0.107362
v 0.107362 -0.894129 0.107362
vn -1.0000 -0.0000 -0.0000
vn -0.0000 -0.0000 -1.0000
vn 1.0000 -0.0000 -0.0000
vn -0.0000 -0.0000 1.0000
vn -0.0000 -0.3827 -0.9239
vn -0.0000 1.0000 -0.0000
vn -0.0000 -1.0000 -0.0000
vn -0.9239 -0.3827 -0.0000
vn 0.9239 -0.3827 -0.0000
vn -0.0000 -0.3827 0.9239
vt 0.375000 0.000000
vt 0.625000 0.000000
vt 0.625000 0.250000
vt 0.375000 0.250000
vt 0.625000 0.500000
vt 0.375000 0.500000
vt 0.625000 0.750000
vt 0.375000 0.750000
vt 0.625000 1.000000
vt 0.375000 1.000000
vt 0.875000 0.500000
vt 0.875000 0.750000
vt 0.125000 0.500000
vt 0.125000 0.750000
s 0
f 1/1/1 2/2/1 4/3/1 3/4/1
f 3/4/2 4/3/2 8/5/2 7/6/2
f 7/6/3 8/5/3 6/7/3 5/8/3
f 5/8/4 6/7/4 2/9/4 1/10/4
f 3/4/5 7/6/5 11/6/5 9/4/5
f 8/5/6 4/11/6 2/12/6 6/7/6
f 9/13/7 11/6/7 12/8/7 10/14/7
f 1/1/8 3/4/8 9/4/8 10/1/8
f 7/6/9 5/8/9 12/8/9 11/6/9
f 5/8/10 1/10/10 10/10/10 12/8/10
